#define copter_width 75
#define copter_height 75
static char copter_bits[] = {
  0x00, 0x00, 0x00, 0x00, 0x00, 0x00, 0x00, 0x00, 0x00, 0x00, 0x00, 0x00, 
  0x00, 0x00, 0x00, 0x00, 0x00, 0x00, 0x00, 0x00, 0x00, 0x00, 0x00, 0x00, 
  0x00, 0x00, 0x00, 0x00, 0x00, 0x00, 0x00, 0x00, 0x00, 0x00, 0x00, 0x00, 
  0x00, 0x00, 0x00, 0x00, 0x00, 0x00, 0x00, 0x1E, 0x00, 0x00, 0x00, 0x00, 
  0x00, 0x00, 0x00, 0x00, 0x80, 0x0F, 0x00, 0x00, 0x00, 0x00, 0x00, 0x00, 
  0x00, 0x00, 0xC0, 0x07, 0x00, 0x80, 0x03, 0x00, 0x00, 0x00, 0x00, 0x00, 
  0xE0, 0x07, 0x00, 0x80, 0x07, 0x00, 0x00, 0x00, 0x00, 0x00, 0xF8, 0x01, 
  0x00, 0x00, 0x3F, 0x00, 0x00, 0x00, 0x00, 0x00, 0xF8, 0x00, 0x00, 0x00, 
  0x7E, 0x00, 0x00, 0x00, 0x00, 0x00, 0x3C, 0x00, 0x00, 0x00, 0xFC, 0x00, 
  0x00, 0x00, 0x00, 0x00, 0x1E, 0x00, 0x00, 0x00, 0xF0, 0x01, 0x00, 0x00, 
  0x00, 0x00, 0x07, 0x00, 0x00, 0x00, 0xE0, 0x03, 0x00, 0x00, 0x00, 0x80, 
  0x07, 0x00, 0x00, 0x00, 0x00, 0x0F, 0x00, 0x00, 0x00, 0x80, 0x07, 0x00, 
  0x00, 0x00, 0x00, 0x1E, 0x00, 0x00, 0x00, 0xC0, 0x0F, 0x00, 0x00, 0x00, 
  0x00, 0x1E, 0x00, 0x00, 0x00, 0x60, 0x0E, 0x00, 0x00, 0x00, 0x00, 0x3E, 
  0x00, 0x00, 0x00, 0x38, 0x3C, 0x00, 0x00, 0x00, 0x00, 0xEE, 0x00, 0x00, 
  0x00, 0x1E, 0x58, 0x00, 0x00, 0x00, 0x80, 0x84, 0x03, 0x00, 0x00, 0x1F, 
  0xB0, 0x00, 0x00, 0x00, 0x00, 0x80, 0x0F, 0x00, 0x80, 0x0F, 0xA0, 0x01, 
  0x00, 0x00, 0x00, 0x00, 0x1E, 0x00, 0xC0, 0x03, 0x40, 0x02, 0x00, 0x00, 
  0x00, 0x00, 0x7C, 0x00, 0xE0, 0x01, 0x80, 0x06, 0x00, 0x00, 0x10, 0x00, 
  0xF0, 0x00, 0x60, 0x00, 0x00, 0x0D, 0x00, 0x00, 0x00, 0x00, 0xE0, 0x00, 
  0x00, 0x00, 0x00, 0x1A, 0x00, 0x00, 0x00, 0x00, 0x00, 0x00, 0x00, 0x00, 
  0x00, 0x14, 0x00, 0x00, 0x00, 0x00, 0x00, 0x00, 0x00, 0x00, 0x00, 0x38, 
  0x00, 0x00, 0x02, 0x00, 0x00, 0x00, 0x00, 0x00, 0x00, 0xD9, 0x00, 0x00, 
  0x00, 0x00, 0x00, 0x00, 0x00, 0x00, 0x00, 0xFF, 0x8D, 0x84, 0x03, 0x00, 
  0x00, 0x00, 0x00, 0x00, 0x00, 0x40, 0xF3, 0x1F, 0x02, 0x00, 0x00, 0x00, 
  0x00, 0x00, 0x00, 0x80, 0xFF, 0x3F, 0x00, 0x00, 0x00, 0x00, 0x00, 0x00, 
  0x00, 0xC0, 0xDF, 0x3F, 0x00, 0x00, 0x00, 0x00, 0x00, 0x00, 0x00, 0xC0, 
  0x4D, 0x3F, 0x00, 0x00, 0x00, 0x00, 0x00, 0x00, 0x00, 0xB0, 0xFF, 0x54, 
  0x00, 0x00, 0x00, 0x00, 0x00, 0x00, 0x00, 0xA0, 0xAF, 0x4B, 0x00, 0x00, 
  0x00, 0x00, 0x00, 0x00, 0x00, 0x00, 0xC8, 0x7E, 0x00, 0x00, 0x00, 0x00, 
  0x00, 0x00, 0x00, 0x90, 0x82, 0xED, 0x00, 0x00, 0x00, 0x00, 0x00, 0x00, 
  0x00, 0x80, 0x27, 0x74, 0x00, 0x00, 0x00, 0x00, 0x00, 0x00, 0x00, 0x20, 
  0x3E, 0x6C, 0x00, 0x00, 0x00, 0x00, 0x00, 0x00, 0x00, 0xE0, 0xB3, 0x67, 
  0x00, 0x00, 0x00, 0x00, 0x00, 0x00, 0x00, 0x80, 0xF6, 0x67, 0x00, 0x00, 
  0x00, 0x00, 0x00, 0x00, 0x00, 0x40, 0xFD, 0x3F, 0x00, 0x00, 0x00, 0x00, 
  0x00, 0x00, 0x00, 0xA0, 0xE0, 0x1E, 0x00, 0x00, 0x00, 0x00, 0x00, 0x00, 
  0x00, 0x50, 0x18, 0x02, 0x00, 0x00, 0x00, 0x00, 0x30, 0x00, 0x00, 0x2C, 
  0xF8, 0x04, 0x00, 0x00, 0x00, 0x00, 0x70, 0x00, 0x00, 0x16, 0x70, 0x00, 
  0x00, 0x00, 0x00, 0x00, 0xF0, 0x00, 0x00, 0x0B, 0x78, 0x00, 0x00, 0x00, 
  0x00, 0x00, 0xF0, 0x01, 0x80, 0xFF, 0xFD, 0x57, 0x00, 0x00, 0x00, 0x00, 
  0xE0, 0x03, 0x40, 0x83, 0x48, 0x55, 0x00, 0x00, 0x00, 0x00, 0xC0, 0x07, 
  0x60, 0x01, 0x00, 0x00, 0x00, 0x00, 0xC0, 0x01, 0x80, 0x07, 0xD8, 0x00, 
  0x00, 0x00, 0x10, 0x00, 0xF0, 0x01, 0x00, 0x0F, 0x68, 0x00, 0x00, 0x00, 
  0x08, 0x00, 0xFC, 0x00, 0x00, 0x0E, 0x34, 0x00, 0x00, 0x00, 0x00, 0x00, 
  0x7E, 0x00, 0x00, 0x1C, 0x0B, 0x00, 0x00, 0x00, 0x00, 0x00, 0x1F, 0x00, 
  0x00, 0xB8, 0x05, 0x00, 0x00, 0x00, 0x00, 0x80, 0x0F, 0x00, 0x00, 0xF0, 
  0x06, 0x00, 0x00, 0x00, 0x00, 0xC0, 0x03, 0x00, 0x00, 0xF0, 0x01, 0x00, 
  0x00, 0x00, 0x00, 0xFC, 0x00, 0x00, 0x00, 0xF0, 0x01, 0x00, 0x00, 0x00, 
  0x00, 0x3E, 0x00, 0x00, 0x00, 0xE0, 0x00, 0x00, 0x00, 0x00, 0x00, 0x3E, 
  0x00, 0x00, 0x00, 0xE0, 0x00, 0x00, 0x00, 0x00, 0x00, 0x3C, 0x00, 0x00, 
  0x00, 0xC0, 0x03, 0x00, 0x00, 0x00, 0x00, 0x1F, 0x00, 0x00, 0x00, 0x80, 
  0x07, 0x00, 0x00, 0x00, 0xC0, 0x07, 0x00, 0x00, 0x00, 0x00, 0x0F, 0x00, 
  0x00, 0x00, 0xF0, 0x03, 0x00, 0x00, 0x00, 0x00, 0x1F, 0x00, 0x00, 0x00, 
  0xF8, 0x01, 0x00, 0x00, 0x00, 0x00, 0x3E, 0x00, 0x00, 0x00, 0xFC, 0x00, 
  0x00, 0x00, 0x00, 0x00, 0x74, 0x00, 0x00, 0x00, 0x3F, 0x00, 0x00, 0x00, 
  0x00, 0x00, 0x7C, 0x00, 0x00, 0x80, 0x1D, 0x00, 0x00, 0x00, 0x00, 0x00, 
  0xF8, 0x00, 0x00, 0x80, 0x0F, 0x00, 0x00, 0x00, 0x00, 0x00, 0xF0, 0x00, 
  0x00, 0x00, 0x01, 0x00, 0x00, 0x00, 0x00, 0x00, 0xC0, 0x01, 0x00, 0x00, 
  0x00, 0x00, 0x00, 0x00, 0x00, 0x00, 0x00, 0x00, 0x00, 0x00, 0x00, 0x00, 
  0x00, 0x00, 0x00, 0x00, 0x00, 0x00, 0x00, 0x00, 0x00, 0x00, 0x00, 0x00, 
  0x00, 0x00, 0x00, 0x00, 0x00, 0x00, 0x00, 0x00, 0x00, 0x00, 0x00, 0x00, 
  0x00, 0x00, 0x00, 0x00, 0x00, 0x00, 0x00, 0x00, 0x00, 0x00, 0x00, 0x00, 
  0x00, 0x00, 0x00, 0x00, 0x00, 0x00, };
